# xmcd CD database file
#
# Track frame offsets:
#	150
#	14264
#	41065
#	62093
#	65378
#	76345
#	96791
#	121545
#	136568
#	148987
#	165710
#	183170
#	199061
#	223776
#
# Disc length: 3224 seconds
#
# Revision: 0
# Processed by: cddbd v1.5.1PL2 Copyright (c) Steve Scherf et al.
# Submitted via: Feurio! 1.67 - http://www.feurio.com
#
DISCID=be0c960e
DTITLE=CLINT BLACK - D'LECTRIFIED
DYEAR=1900
DGENRE=
TTITLE0=BOB AWAY MY BLUES
TTITLE1=ARE YOU SURE WAYLON DONE IT THIS WAY
TTITLE2=HAND IN THE FIRE
TTITLE3=OUTSIDE INTRO
TTITLE4=GALAXY SONG
TTITLE5=CLINT BLACK and LISA HARTMAN - WHEN I SAID I DO
TTITLE6=CLINT BLACK - STEVE WARINER - BEEN THERE
TTITLE7=DIXIE LULLABY
TTITLE8=WHERE YOUR LOVE DON'T GO
TTITLE9=LOVE SHE CAN'T LIVE WITHOUT
TTITLE10=BURN ONE DOWN
TTITLE11=WHO I USE TO BE
TTITLE12=HARMONY (WITH KENNY LOGGINS)
TTITLE13=NO TIME TO KILL
EXTD=
EXTT0=bx1
EXTT1=
EXTT2=
EXTT3=
EXTT4=
EXTT5=
EXTT6=
EXTT7=
EXTT8=
EXTT9=
EXTT10=
EXTT11=
EXTT12=
EXTT13=
PLAYORDER=
